<svg xmlns="http://www.w3.org/2000/svg" viewBox="0 0 128 128" role="img" aria-label="xmrpay.link document with Monero coin concept">
  <g transform="translate(-13.8 -13.4) scale(1.21)">
    <path d="M28 18h44l18 18v60a10 10 0 0 1-10 10H28a10 10 0 0 1-10-10V28a10 10 0 0 1 10-10z" fill="#ffffff"/>
    <path d="M72 18v18h18" fill="#e5e7eb"/>
    <g fill="none" stroke="#111827" stroke-linejoin="round" stroke-linecap="round">
      <path d="M28 18h44l18 18v60a10 10 0 0 1-10 10H28a10 10 0 0 1-10-10V28a10 10 0 0 1 10-10z" stroke-width="4"/>
      <path d="M72 18v18h18" stroke-width="4"/>
      <rect x="30" y="42" width="36" height="4" rx="2" fill="#111827" stroke="none"/>
      <rect x="30" y="54" width="28" height="4" rx="2" fill="#111827" stroke="none"/>
      <rect x="30" y="66" width="22" height="4" rx="2" fill="#111827" stroke="none"/>
    </g>
    <circle cx="84" cy="86" r="24" fill="#f26821"/>
    <circle cx="84" cy="86" r="24" fill="none" stroke="#111827" stroke-width="4"/>
    <g transform="translate(57.3 59.3) scale(0.175)">
      <path d="m 270.75,190.58 h -0.72 -37.14 v -104.12 l -80.69,80.69 -80.69,-80.69 v 104.12 h -37.14 -0.72 a 124.61,124.61 0 0 0 12.42,26.92 h 52.36 v -66.05 l 53.77,53.77 53.77,-53.77 v 66.05 h 52.36 a 124.61,124.61 0 0 0 12.42,-26.92 z" fill="#ffffff"/>
    </g>
  </g>
</svg>
